<svg xmlns="http://www.w3.org/2000/svg" viewBox="0 0 765.35 572.37"><defs><style>.cls-1{fill:#fff;}</style></defs><title>eficode_logo_black</title><g id="Layer_2" data-name="Layer 2"><g id="Layer_1-2" data-name="Layer 1"><path d="M765.35,268.38c-.15-17.14-7-34.5-14.69-47.59,0,0-108.14-185.8-109.06-187.28l-.14-.23h0A71,71,0,0,0,585.26,0H180.09A71,71,0,0,0,123.9,33.29h0l-.13.23C122.84,35,14.7,220.79,14.7,220.79,7,233.88.16,251.24,0,268.38a74.93,74.93,0,0,0,29.81,60.55h0L312.49,544.38c22.25,16.13,43.83,28,70.19,28s47.94-11.86,70.18-28L735.54,328.93h0A74.9,74.9,0,0,0,765.35,268.38Z"/><path class="cls-1" d="M136.52,299a170.7,170.7,0,0,0,32.87-3.21l1.8,9.62s-13,4-33.87,4c-30.66,0-46.08-5.62-46.08-47.9,0-12.62,1.8-24.44,4.8-31.46,5.41-12.62,17.44-16.43,38.88-16.43,16.63,0,28.65,1.81,34.87,9.42,5,6.41,7,15.23,7,30.86,0,3.61-.2,7-.4,10.82-3.41.2-16,1.6-31.06,1.6-14.43,0-27.65-.8-27.65-.8l-6.22-4.21a5.75,5.75,0,0,0-3.6-1.4c-3.81,0-3.41,3.61-3.41,6.21,0,8.42.2,19,6,25.45C115.28,297,124.1,299,136.52,299Zm-.4-75.35c-29.46,0-30.26,5.21-31.46,31.06,13.83,2.2,30.06,1.8,30.06,1.8s16.63.4,28.65-.8C163.37,226.67,157.76,223.66,136.12,223.66Z"/><path class="cls-1" d="M249.27,183.18a117.44,117.44,0,0,0-12.62-.8c-6.21,0-12.42.4-15.23,3.41-3,3.41-3.41,9.82-3.41,16.63v12.42h29.46v9.82H218V295.4c0,2.6.4,3.2,2.81,3.61l5.21,1v8H197.37v-7.81l5.21-1c2.41-.61,2.81-1.21,2.81-3.61V224.66H187.76v-9.82h17.63V202.22c0-10,.6-19.64,9-25.45,5-3.6,13-4.21,20.43-4.21A106.5,106.5,0,0,1,250.07,174Z"/><path class="cls-1" d="M258.79,308v-7.81l5.21-1c2.4-.61,2.8-1.21,2.8-3.61V227.47c0-2.61-.4-3.21-2.8-3.61l-5.21-1v-8h20.64V295.4c0,2.6.4,3.2,2.8,3.61l5.21,1v8ZM263,189.8V174.57h15.83V189.8Z"/><path class="cls-1" d="M374.61,217.65,373,227.07a153.62,153.62,0,0,0-29.25-3.21c-25.45,0-31.06,5.61-31.06,37.67s5.61,37.68,31.06,37.68A153.62,153.62,0,0,0,373,296l1.61,9.42a147,147,0,0,1-32.87,4c-31.26,0-42.28-8.42-42.28-47.9s11-47.89,42.28-47.89A147,147,0,0,1,374.61,217.65Z"/><path class="cls-1" d="M429.53,309.43c-35.87,0-42.28-8.42-42.28-47.9s6.41-47.89,42.28-47.89,42.28,8.42,42.28,47.89S465.4,309.43,429.53,309.43Zm0-85.77c-26.45,0-29.06,4-29.06,37.87s2.61,37.88,29.06,37.88,29.05-4,29.05-37.88S456,223.66,429.53,223.66Z"/><path class="cls-1" d="M558.33,308l-.8-5c-.2-1.2-.6-3.2-3.41-3.2-1.4,0-2.81,1-4,1.8L540.5,308a104.38,104.38,0,0,1-17,1.41c-30.46,0-35.47-19.64-35.47-47.9,0-27.25,4.81-47.89,37.07-47.89a171.39,171.39,0,0,1,32.07,3.21V187.19c0-2.6-.41-3.21-2.81-3.61l-5.21-1v-8h20.64V295.4c0,2.6.4,3.2,2.8,3.61l5.22,1v8Zm-1.2-81.75a198.84,198.84,0,0,0-27.86-2.41c-23.24,0-28,7.82-28,37.67,0,30.06,4.81,37.48,28,37.48a114.53,114.53,0,0,0,27.86-4Z"/><path class="cls-1" d="M633.85,299a170.65,170.65,0,0,0,32.86-3.21l1.81,9.62s-13,4-33.87,4c-30.66,0-46.09-5.62-46.09-47.9,0-12.62,1.8-24.44,4.81-31.46,5.41-12.62,17.43-16.43,38.88-16.43,16.62,0,28.65,1.81,34.86,9.42,5,6.41,7,15.23,7,30.86,0,3.61-.2,7-.4,10.82-3.4.2-16,1.6-31.05,1.6-14.43,0-27.66-.8-27.66-.8l-6.21-4.21a5.76,5.76,0,0,0-3.61-1.4c-3.8,0-3.41,3.61-3.41,6.21,0,8.42.21,19,6,25.45C612.61,297,621.42,299,633.85,299Zm-.4-75.35c-29.46,0-30.26,5.21-31.46,31.06,13.82,2.2,30,1.8,30,1.8s16.64.4,28.66-.8C660.7,226.67,655.09,223.66,633.45,223.66Z"/></g></g></svg>